<?xml version="1.0" encoding="UTF-8"?>
<svg width="145px" height="145px" viewBox="0 0 145 145" version="1.1" xmlns="http://www.w3.org/2000/svg" xmlns:xlink="http://www.w3.org/1999/xlink">
    <title>avatar</title>
    <g id="Page-1" stroke="none" stroke-width="1" fill="none" fill-rule="evenodd">
        <g id="avatar-svgrepo-com" fill-rule="nonzero">
            <circle id="Oval" fill="#8DC5D6" cx="72.387" cy="72.386" r="72.386"></circle>
            <g id="Group" transform="translate(31.000000, 32.000000)">
                <path d="M14.234,43.056 C14.234,54.864 7.755,55.169 8.216,62.988 C8.729,71.647 15.497,71.667 15.497,77.62 C15.497,83.571 9.273,90.244 14.787,96.653 C39.031,96.653 41.397,96.653 41.397,96.653 L41.397,24.445 L14.234,43.056 Z" id="Path" fill="#2E576D"></path>
                <path d="M68.538,42.665 C68.538,54.473 75.018,54.778 74.556,62.597 C74.044,71.256 67.276,71.276 67.276,77.229 C67.276,83.18 73.499,89.853 67.986,96.262 C43.741,96.262 41.375,96.262 41.375,96.262 L41.375,24.055 L68.538,42.665 Z" id="Path" fill="#2E576D"></path>
                <g>
                    <ellipse id="Oval" fill="#2E576D" cx="41.387" cy="30.721" rx="29.635" ry="29.828"></ellipse>
                    <path d="M76.053,84.94 C71.387,76.107 41.387,70.564 41.387,70.564 C41.387,70.564 11.387,76.107 6.721,84.94 C3.272,97.198 0.387,112.773 0.387,112.773 L41.387,112.773 L82.387,112.773 C82.387,112.773 80.438,96.073 76.053,84.94 Z" id="Path" fill="#F1C9A5"></path>
                    <path d="M41.387,70.564 C41.387,70.564 71.387,76.107 76.053,84.94 C80.439,96.073 82.387,112.773 82.387,112.773 L41.387,112.773 L41.387,70.564 Z" id="Path" fill="#E4B692"></path>
                    <rect id="Rectangle" fill="#F1C9A5" x="33.22" y="52.606" width="16.334" height="27.336"></rect>
                    <rect id="Rectangle" fill="#E4B692" x="41.387" y="52.606" width="8.167" height="27.336"></rect>
                    <path d="M33.22,65.273 C34.689,69.49 40.617,71.907 44.971,71.907 C46.546,71.907 48.079,71.643 49.554,71.16 L49.554,52.606 L33.22,52.606 L33.22,65.273 Z" id="Path" fill="#DDAC8C" opacity="0.1"></path>
                    <path d="M62.387,35.357 C62.387,18.283 52.985,8.574 41.387,8.574 C29.789,8.574 20.387,18.283 20.387,35.357 C20.387,52.431 29.789,66.274 41.387,66.274 C52.984,66.274 62.387,52.432 62.387,35.357 Z" id="Path" fill="#F1C9A5"></path>
                    <path d="M59.19,47.195 C55.383,46.771 52.813,42.412 53.458,37.463 C54.095,32.51 57.7,28.833 61.509,29.254 C65.314,29.676 67.88,34.033 67.238,38.986 C66.599,43.939 62.997,47.613 59.19,47.195 Z" id="Path" fill="#E4B692"></path>
                    <path d="M15.685,38.986 C15.042,34.033 17.609,29.675 21.412,29.254 C25.222,28.833 28.828,32.51 29.467,37.463 C30.109,42.412 27.537,46.772 23.733,47.195 C19.925,47.613 16.323,43.939 15.685,38.986 Z" id="Path" fill="#F1C9A5"></path>
                    <path d="M62.387,35.357 C62.387,18.283 52.985,8.574 41.387,8.574 L41.387,66.274 C52.984,66.274 62.387,52.432 62.387,35.357 Z" id="Path" fill="#E4B692"></path>
                </g>
                <path d="M64.12,33.43 C64.12,33.379 64.123,33.33 64.123,33.28 C64.123,20.035 55.156,6.058 42.605,6.058 C30.054,6.058 18.674,20.034 18.674,33.279 C18.674,33.33 18.677,33.379 18.677,33.429 L64.12,33.429 L64.12,33.43 Z" id="Path" fill="#2E576D"></path>
                <path d="M82.387,112.773 C82.387,112.773 80.439,96.073 76.053,84.94 C73.494,80.095 63.319,76.244 54.647,73.751 L41.356,84.183 L27.531,73.923 C18.996,76.42 9.221,80.207 6.721,84.941 C3.272,97.199 0.387,112.774 0.387,112.774 L41.387,112.774 L82.387,112.774 L82.387,112.773 Z" id="Path" fill="#FA582A"></path>
            </g>
        </g>
    </g>
</svg>
